<?xml version="1.0" encoding="utf-8"?>
<!-- Generator: Adobe Illustrator 16.0.0, SVG Export Plug-In . SVG Version: 6.00 Build 0)  -->
<!DOCTYPE svg PUBLIC "-//W3C//DTD SVG 1.1//EN" "http://www.w3.org/Graphics/SVG/1.1/DTD/svg11.dtd">
<svg version="1.1" id="Layer_1" xmlns="http://www.w3.org/2000/svg" xmlns:xlink="http://www.w3.org/1999/xlink" x="0px" y="0px"
	 width="1000px" height="1000px" viewBox="0 0 1000 1000" enable-background="new 0 0 1000 1000" xml:space="preserve">
<polygon fill="none" stroke="#000000" stroke-width="50" stroke-miterlimit="10" points="118.211,398.996 251.95,245.273 
	748.049,245.273 881.787,398.996 500,704.364 "/>
<g>
	<path d="M484.876,513.938c44.924,0,50.54-2.809,50.54-26.206c0-16.38-9.36-23.868-50.54-31.354
		c-16.379-3.275-58.963-9.828-87.041-20.589c-38.372-14.508-48.199-35.565-48.199-73.002c0-65.982,23.397-69.165,109.501-71.972
		v-60.829h65.516v61.765c76.277,5.148,105.629-4.804,105.629,86.424v8.423l-68-13v-8.423C566.497,333.327,527.395,334,486.683,334
		c-39.308,0-43.455,2.58-43.455,25.042c0,18.25,13.103,23.865,38.84,28.545c45.859,7.488,67.387,13.104,91.252,20.123
		c44.926,13.104,55.687,38.373,55.687,81.893c0,59.43-22.46,80.02-104.354,84.233v110.148h-65.516V574.303
		c-91.251-2.807-116.053-25.27-116.053-97.803v-6.083l63.666-14v6.083C406.75,496.193,437.612,513.938,484.876,513.938z"/>
</g>
<rect x="459.137" y="279.313" width="65.516" height="314.688"/>
</svg>
